<mxfile host="app.diagrams.net" modified="2021-07-09T15:04:36.582Z" agent="5.0 (Macintosh; Intel Mac OS X 10_15_7) AppleWebKit/537.36 (KHTML, like Gecko) Chrome/91.0.4472.106 Safari/537.36" etag="1R1j8jINwbStc6yuHNm6" version="14.8.0" type="github">
  <diagram id="yXq_ncp_oJ6ES4drRkR6" name="Page-1">
    <mxGraphModel dx="1833" dy="1669" grid="1" gridSize="10" guides="1" tooltips="1" connect="1" arrows="1" fold="1" page="1" pageScale="1" pageWidth="850" pageHeight="1100" math="0" shadow="0">
      <root>
        <mxCell id="0" />
        <mxCell id="1" parent="0" />
        <mxCell id="LLp70P_dzTgBlbzyxr1e-1" value="Bar" style="whiteSpace=wrap;html=1;aspect=fixed;" parent="1" vertex="1">
          <mxGeometry x="50" y="40" width="80" height="80" as="geometry" />
        </mxCell>
        <mxCell id="LLp70P_dzTgBlbzyxr1e-2" value="Workplace" style="whiteSpace=wrap;html=1;aspect=fixed;" parent="1" vertex="1">
          <mxGeometry x="190" y="-110" width="80" height="80" as="geometry" />
        </mxCell>
        <mxCell id="LLp70P_dzTgBlbzyxr1e-3" value="User" style="whiteSpace=wrap;html=1;aspect=fixed;" parent="1" vertex="1">
          <mxGeometry x="330" y="40" width="80" height="80" as="geometry" />
        </mxCell>
        <mxCell id="LLp70P_dzTgBlbzyxr1e-4" value="Follow" style="whiteSpace=wrap;html=1;aspect=fixed;" parent="1" vertex="1">
          <mxGeometry x="385" y="260" width="80" height="80" as="geometry" />
        </mxCell>
        <mxCell id="LLp70P_dzTgBlbzyxr1e-5" value="Category" style="whiteSpace=wrap;html=1;aspect=fixed;" parent="1" vertex="1">
          <mxGeometry x="900" y="40" width="80" height="80" as="geometry" />
        </mxCell>
        <mxCell id="LLp70P_dzTgBlbzyxr1e-6" value="Cocktail" style="whiteSpace=wrap;html=1;aspect=fixed;" parent="1" vertex="1">
          <mxGeometry x="710" y="40" width="80" height="80" as="geometry" />
        </mxCell>
        <mxCell id="LLp70P_dzTgBlbzyxr1e-8" value="Like" style="whiteSpace=wrap;html=1;aspect=fixed;" parent="1" vertex="1">
          <mxGeometry x="485" y="-110" width="80" height="80" as="geometry" />
        </mxCell>
        <mxCell id="LLp70P_dzTgBlbzyxr1e-10" value="" style="endArrow=classic;html=1;entryX=-0.02;entryY=0.559;entryDx=0;entryDy=0;entryPerimeter=0;" parent="1" target="LLp70P_dzTgBlbzyxr1e-2" edge="1">
          <mxGeometry width="50" height="50" relative="1" as="geometry">
            <mxPoint x="90" y="40" as="sourcePoint" />
            <mxPoint x="140" y="-10" as="targetPoint" />
          </mxGeometry>
        </mxCell>
        <mxCell id="LLp70P_dzTgBlbzyxr1e-11" value="" style="endArrow=classic;html=1;entryX=1;entryY=0.5;entryDx=0;entryDy=0;exitX=0.5;exitY=0;exitDx=0;exitDy=0;" parent="1" source="LLp70P_dzTgBlbzyxr1e-3" target="LLp70P_dzTgBlbzyxr1e-2" edge="1">
          <mxGeometry width="50" height="50" relative="1" as="geometry">
            <mxPoint x="330" y="20" as="sourcePoint" />
            <mxPoint x="380" y="-30" as="targetPoint" />
          </mxGeometry>
        </mxCell>
        <mxCell id="LLp70P_dzTgBlbzyxr1e-12" value="" style="endArrow=classic;html=1;exitX=0.5;exitY=1;exitDx=0;exitDy=0;entryX=0.5;entryY=0;entryDx=0;entryDy=0;" parent="1" source="LLp70P_dzTgBlbzyxr1e-3" target="LLp70P_dzTgBlbzyxr1e-4" edge="1">
          <mxGeometry width="50" height="50" relative="1" as="geometry">
            <mxPoint x="220" y="160" as="sourcePoint" />
            <mxPoint x="270" y="110" as="targetPoint" />
          </mxGeometry>
        </mxCell>
        <mxCell id="LLp70P_dzTgBlbzyxr1e-13" value="" style="endArrow=classic;html=1;entryX=0;entryY=0.5;entryDx=0;entryDy=0;exitX=0.5;exitY=0;exitDx=0;exitDy=0;" parent="1" source="LLp70P_dzTgBlbzyxr1e-3" target="LLp70P_dzTgBlbzyxr1e-8" edge="1">
          <mxGeometry width="50" height="50" relative="1" as="geometry">
            <mxPoint x="385" y="40" as="sourcePoint" />
            <mxPoint x="440" y="-30" as="targetPoint" />
          </mxGeometry>
        </mxCell>
        <mxCell id="LLp70P_dzTgBlbzyxr1e-14" value="" style="endArrow=classic;html=1;exitX=1;exitY=0.5;exitDx=0;exitDy=0;entryX=0;entryY=0.5;entryDx=0;entryDy=0;" parent="1" source="LLp70P_dzTgBlbzyxr1e-3" target="LLp70P_dzTgBlbzyxr1e-6" edge="1">
          <mxGeometry width="50" height="50" relative="1" as="geometry">
            <mxPoint x="490" y="90" as="sourcePoint" />
            <mxPoint x="540" y="40" as="targetPoint" />
          </mxGeometry>
        </mxCell>
        <mxCell id="LLp70P_dzTgBlbzyxr1e-15" value="" style="endArrow=classic;html=1;exitX=0;exitY=0.5;exitDx=0;exitDy=0;entryX=1;entryY=0.5;entryDx=0;entryDy=0;" parent="1" source="LLp70P_dzTgBlbzyxr1e-5" target="LLp70P_dzTgBlbzyxr1e-6" edge="1">
          <mxGeometry width="50" height="50" relative="1" as="geometry">
            <mxPoint x="710" y="100" as="sourcePoint" />
            <mxPoint x="760" y="50" as="targetPoint" />
          </mxGeometry>
        </mxCell>
        <mxCell id="LLp70P_dzTgBlbzyxr1e-16" value="" style="endArrow=classic;html=1;entryX=1;entryY=0.5;entryDx=0;entryDy=0;exitX=0.5;exitY=0;exitDx=0;exitDy=0;" parent="1" source="LLp70P_dzTgBlbzyxr1e-6" target="LLp70P_dzTgBlbzyxr1e-8" edge="1">
          <mxGeometry width="50" height="50" relative="1" as="geometry">
            <mxPoint x="620" as="sourcePoint" />
            <mxPoint x="670" y="-50" as="targetPoint" />
          </mxGeometry>
        </mxCell>
        <mxCell id="LLp70P_dzTgBlbzyxr1e-17" value="&lt;font style=&quot;font-size: 9px&quot;&gt;name(str)&lt;br&gt;address (str)&lt;br&gt;photos (text)&lt;br&gt;rating (float)&lt;br&gt;total_ratings (int)&lt;br&gt;reviews (text)&lt;/font&gt;" style="text;html=1;align=center;verticalAlign=middle;resizable=0;points=[];autosize=1;strokeColor=none;" parent="1" vertex="1">
          <mxGeometry x="-40" y="35" width="80" height="100" as="geometry" />
        </mxCell>
        <mxCell id="LLp70P_dzTgBlbzyxr1e-18" value="&lt;font style=&quot;font-size: 9px&quot;&gt;full_name (str)&lt;br&gt;username (str)&lt;br&gt;password_digest (str)&lt;br&gt;location (str)&amp;nbsp;&lt;br&gt;bartender (bool)&lt;br&gt;instagram_account (str)&lt;br&gt;biography (str)&lt;br&gt;insta_follower (int)&lt;br&gt;insta_following (int)&lt;br&gt;profile_pic (text)&lt;/font&gt;" style="text;html=1;align=center;verticalAlign=middle;resizable=0;points=[];autosize=1;strokeColor=none;" parent="1" vertex="1">
          <mxGeometry x="205" y="15" width="110" height="160" as="geometry" />
        </mxCell>
        <mxCell id="LLp70P_dzTgBlbzyxr1e-19" value="&lt;font style=&quot;font-size: 9px&quot;&gt;bar_id (int)&lt;br&gt;bartender_id (int)&lt;br&gt;schedule (str)&lt;br&gt;&lt;/font&gt;" style="text;html=1;align=center;verticalAlign=middle;resizable=0;points=[];autosize=1;strokeColor=none;" parent="1" vertex="1">
          <mxGeometry x="190" y="-205" width="80" height="50" as="geometry" />
        </mxCell>
        <mxCell id="LLp70P_dzTgBlbzyxr1e-20" value="&lt;font style=&quot;font-size: 9px&quot;&gt;liked_cocktail_id (int)&lt;br&gt;liker_id (int)&lt;/font&gt;" style="text;html=1;align=center;verticalAlign=middle;resizable=0;points=[];autosize=1;strokeColor=none;" parent="1" vertex="1">
          <mxGeometry x="470" y="-190" width="100" height="40" as="geometry" />
        </mxCell>
        <mxCell id="LLp70P_dzTgBlbzyxr1e-21" value="&lt;font style=&quot;font-size: 9px&quot;&gt;bartender_id (int)&lt;br&gt;category_id (int)&lt;br&gt;name (str)&lt;br&gt;description (str)&lt;br&gt;execution (str)&lt;br&gt;ingredients (text)&lt;/font&gt;" style="text;html=1;align=center;verticalAlign=middle;resizable=0;points=[];autosize=1;strokeColor=none;" parent="1" vertex="1">
          <mxGeometry x="710" y="120" width="80" height="100" as="geometry" />
        </mxCell>
        <mxCell id="LLp70P_dzTgBlbzyxr1e-22" value="&lt;font style=&quot;font-size: 9px&quot;&gt;name (str)&lt;br&gt;definition (str)&lt;br&gt;popular_drinks (text)&lt;/font&gt;" style="text;html=1;align=center;verticalAlign=middle;resizable=0;points=[];autosize=1;strokeColor=none;" parent="1" vertex="1">
          <mxGeometry x="890" y="120" width="100" height="50" as="geometry" />
        </mxCell>
        <mxCell id="LLp70P_dzTgBlbzyxr1e-23" value="&lt;font style=&quot;font-size: 9px&quot;&gt;follower_id&lt;br&gt;followee_id&lt;/font&gt;" style="text;html=1;align=center;verticalAlign=middle;resizable=0;points=[];autosize=1;strokeColor=none;" parent="1" vertex="1">
          <mxGeometry x="470" y="310" width="60" height="40" as="geometry" />
        </mxCell>
        <mxCell id="LLp70P_dzTgBlbzyxr1e-24" value="&lt;font color=&quot;#ff3333&quot; style=&quot;font-size: 9px&quot;&gt;has_many :workplaces&lt;br&gt;has_many :bartenders, through: :workplaces&lt;br&gt;&lt;br&gt;&lt;/font&gt;" style="text;html=1;align=center;verticalAlign=middle;resizable=0;points=[];autosize=1;strokeColor=none;" parent="1" vertex="1">
          <mxGeometry x="-95" y="125" width="190" height="50" as="geometry" />
        </mxCell>
        <mxCell id="LLp70P_dzTgBlbzyxr1e-25" value="Favorite" style="whiteSpace=wrap;html=1;aspect=fixed;" parent="1" vertex="1">
          <mxGeometry x="190" y="200" width="80" height="80" as="geometry" />
        </mxCell>
        <mxCell id="LLp70P_dzTgBlbzyxr1e-26" value="" style="endArrow=classic;html=1;exitX=0.5;exitY=1;exitDx=0;exitDy=0;entryX=0;entryY=0.5;entryDx=0;entryDy=0;" parent="1" source="LLp70P_dzTgBlbzyxr1e-1" target="LLp70P_dzTgBlbzyxr1e-25" edge="1">
          <mxGeometry width="50" height="50" relative="1" as="geometry">
            <mxPoint x="100" y="260" as="sourcePoint" />
            <mxPoint x="150" y="210" as="targetPoint" />
          </mxGeometry>
        </mxCell>
        <mxCell id="LLp70P_dzTgBlbzyxr1e-27" value="" style="endArrow=classic;html=1;entryX=1;entryY=0.5;entryDx=0;entryDy=0;" parent="1" target="LLp70P_dzTgBlbzyxr1e-25" edge="1">
          <mxGeometry width="50" height="50" relative="1" as="geometry">
            <mxPoint x="370" y="120" as="sourcePoint" />
            <mxPoint x="370" y="180" as="targetPoint" />
          </mxGeometry>
        </mxCell>
        <mxCell id="LLp70P_dzTgBlbzyxr1e-28" value="&lt;font style=&quot;font-size: 9px&quot;&gt;liked_bar_id (int)&lt;br&gt;user_id (int)&lt;br&gt;&lt;/font&gt;" style="text;html=1;align=center;verticalAlign=middle;resizable=0;points=[];autosize=1;strokeColor=none;" parent="1" vertex="1">
          <mxGeometry x="200" y="280" width="80" height="40" as="geometry" />
        </mxCell>
        <mxCell id="LLp70P_dzTgBlbzyxr1e-31" value="&lt;font style=&quot;font-size: 9px&quot; color=&quot;#ff3333&quot;&gt;belongs_to :liked_bar, class_name: &#39;Bar&#39;&lt;br&gt;belongs_to :user&lt;br&gt;&lt;/font&gt;" style="text;html=1;align=center;verticalAlign=middle;resizable=0;points=[];autosize=1;strokeColor=none;" parent="1" vertex="1">
          <mxGeometry x="150" y="310" width="180" height="40" as="geometry" />
        </mxCell>
        <mxCell id="LLp70P_dzTgBlbzyxr1e-32" value="&lt;font style=&quot;font-size: 9px&quot; color=&quot;#ff3333&quot;&gt;belongs_to :follower, class_name: &#39;User&#39;&lt;br&gt;belongs_to :followee, class_name: &#39;User&#39;&lt;br&gt;&lt;/font&gt;" style="text;html=1;align=center;verticalAlign=middle;resizable=0;points=[];autosize=1;strokeColor=none;" parent="1" vertex="1">
          <mxGeometry x="410" y="340" width="180" height="40" as="geometry" />
        </mxCell>
        <mxCell id="LLp70P_dzTgBlbzyxr1e-33" value="&lt;font style=&quot;font-size: 9px&quot; color=&quot;#ff3333&quot;&gt;has_many :cocktails&lt;br&gt;has_many :categories, through: :cocktails&lt;br&gt;has_many :likes&lt;br&gt;has_many :liked_cocktails, through: :likes, class_name: &#39;Cocktail&#39;&lt;br&gt;&lt;br&gt;has_many :followed_users, foreign_key: :follower_id, class_name: &#39;Follow&#39;&lt;br&gt;has_many :followees, through: :followed_users&lt;br&gt;has_many :following_users, foreign_key: :followee_id, class_name: &#39;Follow&#39;&lt;br&gt;has_many :followers, through: :following_users&lt;br&gt;&lt;/font&gt;" style="text;html=1;align=center;verticalAlign=middle;resizable=0;points=[];autosize=1;strokeColor=none;" parent="1" vertex="1">
          <mxGeometry x="385" y="40" width="320" height="140" as="geometry" />
        </mxCell>
        <mxCell id="LLp70P_dzTgBlbzyxr1e-34" value="&lt;font style=&quot;font-size: 9px&quot; color=&quot;#ff3333&quot;&gt;belongs_to :bartender, class_name: &#39;User&#39;&lt;br&gt;belongs_to :category&lt;br&gt;has_many :likes&lt;br&gt;has_many :likers, through: :likes, class_name: &#39;User&#39;&lt;br&gt;&lt;/font&gt;" style="text;html=1;align=center;verticalAlign=middle;resizable=0;points=[];autosize=1;strokeColor=none;" parent="1" vertex="1">
          <mxGeometry x="640" y="215" width="220" height="70" as="geometry" />
        </mxCell>
        <mxCell id="LLp70P_dzTgBlbzyxr1e-35" value="&lt;font style=&quot;font-size: 9px&quot; color=&quot;#ff3333&quot;&gt;has_many :cocktails&lt;br&gt;has_many :bartenders, through: :cocktails, class_name: &#39;User&#39;&lt;br&gt;&lt;/font&gt;" style="text;html=1;align=center;verticalAlign=middle;resizable=0;points=[];autosize=1;strokeColor=none;" parent="1" vertex="1">
          <mxGeometry x="810" y="160" width="260" height="40" as="geometry" />
        </mxCell>
        <mxCell id="LLp70P_dzTgBlbzyxr1e-36" value="&lt;font style=&quot;font-size: 9px&quot; color=&quot;#ff3333&quot;&gt;belongs_to :liker, class_name: &#39;User&#39;&lt;br&gt;belongs_to :liked_cocktail, class_name: &#39;Cocktail&#39;&lt;br&gt;&lt;/font&gt;" style="text;html=1;align=center;verticalAlign=middle;resizable=0;points=[];autosize=1;strokeColor=none;" parent="1" vertex="1">
          <mxGeometry x="415" y="-160" width="210" height="40" as="geometry" />
        </mxCell>
        <mxCell id="LLp70P_dzTgBlbzyxr1e-37" value="&lt;font style=&quot;font-size: 9px&quot; color=&quot;#ff3333&quot;&gt;belongs_to :bar&lt;br&gt;belongs_to :bartender, class_name: &#39;User&#39;&lt;br&gt;&lt;/font&gt;" style="text;html=1;align=center;verticalAlign=middle;resizable=0;points=[];autosize=1;strokeColor=none;" parent="1" vertex="1">
          <mxGeometry x="135" y="-160" width="180" height="40" as="geometry" />
        </mxCell>
        <mxCell id="wkhF6PWH8usmbtx6eN91-1" value="" style="whiteSpace=wrap;html=1;aspect=fixed;" vertex="1" parent="1">
          <mxGeometry x="810" y="-110" width="80" height="80" as="geometry" />
        </mxCell>
        <mxCell id="wkhF6PWH8usmbtx6eN91-2" value="" style="whiteSpace=wrap;html=1;aspect=fixed;" vertex="1" parent="1">
          <mxGeometry x="1010" y="-110" width="80" height="80" as="geometry" />
        </mxCell>
      </root>
    </mxGraphModel>
  </diagram>
</mxfile>
